<svg width="20" height="21" viewBox="0 0 20 21" fill="none" xmlns="http://www.w3.org/2000/svg">
<g id="carbon:previous-filled">
<path id="Vector" d="M10 1.75C8.26942 1.75 6.57769 2.26318 5.13876 3.22464C3.69983 4.1861 2.57832 5.55267 1.91606 7.15152C1.25379 8.75037 1.08051 10.5097 1.41813 12.207C1.75575 13.9044 2.58911 15.4635 3.81282 16.6872C5.03653 17.9109 6.59563 18.7443 8.29296 19.0819C9.9903 19.4195 11.7496 19.2462 13.3485 18.5839C14.9473 17.9217 16.3139 16.8002 17.2754 15.3612C18.2368 13.9223 18.75 12.2306 18.75 10.5C18.75 8.17936 17.8281 5.95376 16.1872 4.31282C14.5462 2.67187 12.3206 1.75 10 1.75ZM15 11.125H7.40625L10.8938 14.6081L10 15.5L5 10.5L10 5.5L10.8938 6.37063L7.40625 9.875H15V11.125Z" fill="white"/>
</g>
</svg>
