<svg width="24" height="24" viewBox="0 0 24 24" fill="none" xmlns="http://www.w3.org/2000/svg">
<g id="clarity:tasks-line" clip-path="url(#clip0_2_1872)">
<path id="Vector" d="M19.5273 22.6666H4.47398C4.32515 22.6675 4.1776 22.6391 4.03977 22.5829C3.90193 22.5268 3.7765 22.444 3.67064 22.3394C3.56478 22.2348 3.48056 22.1103 3.4228 21.9732C3.36504 21.836 3.33486 21.6888 3.33398 21.54V4.45997C3.33794 4.29505 3.37683 4.13285 3.44807 3.98407C3.51932 3.83529 3.62131 3.7033 3.74732 3.59683C3.87332 3.49036 4.02047 3.41182 4.17905 3.36639C4.33764 3.32097 4.50405 3.30969 4.66732 3.3333H6.00065V4.66664H4.66732V21.3333H19.334V4.66664H18.0007V3.3333H19.5007C19.6517 3.32886 19.8021 3.35466 19.9431 3.40921C20.084 3.46375 20.2126 3.54593 20.3213 3.6509C20.43 3.75588 20.5166 3.88154 20.576 4.02048C20.6355 4.15943 20.6665 4.30885 20.6673 4.45997V21.54C20.6664 21.6888 20.6363 21.836 20.5785 21.9732C20.5207 22.1103 20.4365 22.2348 20.3307 22.3394C20.2248 22.444 20.0994 22.5268 19.9615 22.5829C19.8237 22.6391 19.6762 22.6675 19.5273 22.6666Z" fill="white"/>
<path id="Vector_2" d="M11.1057 17.1734L7.53238 13.6C7.42401 13.4717 7.36805 13.3072 7.37569 13.1395C7.38334 12.9717 7.45402 12.813 7.57362 12.6951C7.69321 12.5772 7.85291 12.5087 8.02077 12.5035C8.18863 12.4982 8.3523 12.5565 8.47905 12.6667L11.1057 15.2934L16.8657 9.53335C16.9932 9.42413 17.1573 9.36706 17.3251 9.37354C17.4929 9.38002 17.652 9.44958 17.7708 9.56831C17.8895 9.68704 17.959 9.8462 17.9655 10.014C17.972 10.1818 17.9149 10.3458 17.8057 10.4734L11.1057 17.1734Z" fill="white"/>
<path id="Vector_3" d="M17.3327 7.33335H6.66602V4.88669C6.66777 4.47526 6.83199 4.08118 7.12291 3.79025C7.41384 3.49933 7.80792 3.33511 8.21935 3.33335H9.41268C9.55955 2.75974 9.89315 2.25133 10.3609 1.88826C10.8286 1.52519 11.4039 1.32812 11.996 1.32812C12.5881 1.32812 13.1634 1.52519 13.6311 1.88826C14.0989 2.25133 14.4325 2.75974 14.5793 3.33335H15.7727C16.1853 3.33335 16.5811 3.49679 16.8734 3.78791C17.1658 4.07902 17.3309 4.47411 17.3327 4.88669V7.33335ZM7.99935 6.00002H15.9993V4.88669C15.9993 4.82834 15.9762 4.77238 15.9349 4.73112C15.8937 4.68987 15.8377 4.66669 15.7793 4.66669H13.3327V4.00002C13.3327 3.6464 13.1922 3.30726 12.9422 3.05721C12.6921 2.80716 12.353 2.66669 11.9993 2.66669C11.6457 2.66669 11.3066 2.80716 11.0565 3.05721C10.8065 3.30726 10.666 3.6464 10.666 4.00002V4.66669H8.21935C8.19046 4.66669 8.16185 4.67238 8.13516 4.68343C8.10847 4.69449 8.08421 4.71069 8.06379 4.73112C8.04336 4.75155 8.02715 4.7758 8.0161 4.8025C8.00504 4.82919 7.99935 4.8578 7.99935 4.88669V6.00002Z" fill="white"/>
</g>
<defs>
<clipPath id="clip0_2_1872">
<rect width="24" height="24" fill="white"/>
</clipPath>
</defs>
</svg>
