<svg width="18" height="18" viewBox="0 0 18 18" fill="none" xmlns="http://www.w3.org/2000/svg">
<g id="octicon:goal-24" clip-path="url(#clip0_2_2084)">
<path id="Vector" d="M15.1298 5.06246H13.7341L10.3096 8.48546C10.4275 8.78605 10.4384 9.11809 10.3403 9.42574C10.2422 9.73339 10.0412 9.99789 9.77105 10.1748C9.50089 10.3516 9.17807 10.4301 8.85688 10.3969C8.53568 10.3638 8.23569 10.221 8.00737 9.99268C7.77904 9.76435 7.63629 9.46437 7.60314 9.14317C7.56998 8.82198 7.64843 8.49916 7.82529 8.229C8.00216 7.95884 8.26666 7.75782 8.57431 7.65974C8.88196 7.56167 9.214 7.57251 9.51459 7.69046L12.9383 4.26671V2.87096C12.9384 2.6842 13.0126 2.50509 13.1446 2.37296L14.4421 1.07546C14.4661 1.05123 14.4962 1.03401 14.5292 1.02568C14.5623 1.01735 14.597 1.01823 14.6296 1.02821C14.6963 1.04771 14.7458 1.10321 14.7593 1.17146L15.1043 2.89721L16.8293 3.24221C16.8968 3.25571 16.9523 3.30521 16.9718 3.37196C16.9817 3.40439 16.9826 3.43887 16.9744 3.47176C16.9662 3.50464 16.9492 3.53469 16.9253 3.55871L15.6271 4.85621C15.5618 4.92158 15.4843 4.97345 15.399 5.00884C15.3137 5.04423 15.2222 5.06245 15.1298 5.06246Z" fill="#00770C"/>
<path id="Vector_2" d="M1.96875 9C1.96875 10.8648 2.70954 12.6532 4.02816 13.9718C5.34677 15.2905 7.1352 16.0313 9 16.0313C9.92336 16.0313 10.8377 15.8494 11.6907 15.496C12.5438 15.1427 13.3189 14.6248 13.9718 13.9718C14.6248 13.3189 15.1427 12.5438 15.496 11.6907C15.8494 10.8377 16.0312 9.92336 16.0312 9C16.0312 8.3265 15.9368 7.6755 15.7605 7.05975C15.7255 6.91837 15.7466 6.76891 15.8196 6.64283C15.8925 6.51674 16.0115 6.42386 16.1515 6.38373C16.2915 6.3436 16.4417 6.35935 16.5703 6.42766C16.6989 6.49598 16.7961 6.61153 16.8412 6.75C17.0467 7.4655 17.1562 8.22001 17.1562 9C17.1562 13.5045 13.5045 17.1563 9 17.1563C4.4955 17.1563 0.84375 13.5045 0.84375 9C0.84375 4.4955 4.4955 0.843754 9 0.843754C9.76125 0.843004 10.518 0.948754 11.25 1.158C11.3214 1.17802 11.3881 1.21195 11.4463 1.25784C11.5045 1.30373 11.5531 1.36068 11.5892 1.4254C11.6254 1.49012 11.6483 1.56135 11.6569 1.63499C11.6654 1.70862 11.6592 1.78321 11.6388 1.85448C11.6184 1.92574 11.5841 1.99226 11.5379 2.05023C11.4917 2.10819 11.4345 2.15645 11.3696 2.19223C11.3047 2.22801 11.2333 2.25061 11.1596 2.25872C11.086 2.26683 11.0114 2.2603 10.9403 2.2395C10.3093 2.0593 9.65621 1.96817 9 1.96875C7.1352 1.96875 5.34677 2.70954 4.02816 4.02816C2.70954 5.34678 1.96875 7.1352 1.96875 9Z" fill="#00770C"/>
</g>
<defs>
<clipPath id="clip0_2_2084">
<rect width="18" height="18" fill="white"/>
</clipPath>
</defs>
</svg>
