<svg width="21" height="22" viewBox="0 0 21 22" fill="none" xmlns="http://www.w3.org/2000/svg">
<g id="flat-color-icons:google">
<path id="Vector" d="M19.0798 9.28631H18.375V9.25H10.5V12.75H15.4451C14.7236 14.7874 12.7851 16.25 10.5 16.25C7.60069 16.25 5.25 13.8993 5.25 11C5.25 8.10069 7.60069 5.75 10.5 5.75C11.8383 5.75 13.0559 6.25487 13.9829 7.07956L16.4579 4.60462C14.8951 3.14819 12.8047 2.25 10.5 2.25C5.66781 2.25 1.75 6.16781 1.75 11C1.75 15.8322 5.66781 19.75 10.5 19.75C15.3322 19.75 19.25 15.8322 19.25 11C19.25 10.4133 19.1896 9.84062 19.0798 9.28631Z" fill="#FFC107"/>
<path id="Vector_2" d="M2.75977 6.92731L5.63458 9.03563C6.41245 7.10975 8.29633 5.75 10.5009 5.75C11.8392 5.75 13.0568 6.25488 13.9838 7.07956L16.4588 4.60463C14.896 3.14819 12.8056 2.25 10.5009 2.25C7.14001 2.25 4.22539 4.14744 2.75977 6.92731Z" fill="#FF3D00"/>
<path id="Vector_3" d="M10.5006 19.75C12.7608 19.75 14.8144 18.8851 16.3671 17.4785L13.6589 15.1869C12.7509 15.8774 11.6414 16.2509 10.5006 16.25C8.22475 16.25 6.29231 14.7988 5.56431 12.7736L2.71094 14.9721C4.15906 17.8057 7.09994 19.75 10.5006 19.75Z" fill="#4CAF50"/>
<path id="Vector_4" d="M19.0798 9.28631H18.375V9.25H10.5V12.75H15.4451C15.1 13.7197 14.4783 14.567 13.657 15.1873L13.6583 15.1864L16.3664 17.4781C16.1748 17.6522 19.25 15.375 19.25 11C19.25 10.4133 19.1896 9.84063 19.0798 9.28631Z" fill="#1976D2"/>
</g>
</svg>
