<svg width="112" height="30" viewBox="0 0 112 30" fill="none" xmlns="http://www.w3.org/2000/svg">
<g filter="url(#filter0_d_1_15)">
<path d="M5.94095 6.74588V22.2109H3.28245V6.74588H5.94095ZM3.08234 2.64378C3.08234 2.21499 3.21098 1.8529 3.46826 1.55751C3.73506 1.26212 4.12574 1.11442 4.64029 1.11442C5.14531 1.11442 5.53122 1.26212 5.79802 1.55751C6.07435 1.8529 6.21252 2.21499 6.21252 2.64378C6.21252 3.05351 6.07435 3.40607 5.79802 3.70146C5.53122 3.98732 5.14531 4.13025 4.64029 4.13025C4.12574 4.13025 3.73506 3.98732 3.46826 3.70146C3.21098 3.40607 3.08234 3.05351 3.08234 2.64378ZM12.8302 10.0476V22.2109H10.186V6.74588H12.6873L12.8302 10.0476ZM12.2013 13.8924L11.1007 13.8495C11.1103 12.7918 11.2675 11.8151 11.5724 10.9194C11.8773 10.0142 12.3061 9.2281 12.8588 8.56109C13.4114 7.89408 14.0689 7.37953 14.8312 7.01744C15.603 6.64583 16.4559 6.46002 17.3897 6.46002C18.152 6.46002 18.838 6.56483 19.4479 6.77446C20.0577 6.97457 20.577 7.29854 21.0058 7.74639C21.4441 8.19424 21.7776 8.77549 22.0063 9.49014C22.235 10.1953 22.3494 11.0576 22.3494 12.0772V22.2109H19.6908V12.0486C19.6908 11.2387 19.5717 10.5907 19.3335 10.1047C19.0953 9.60925 18.7475 9.25192 18.2901 9.03276C17.8328 8.80407 17.2706 8.68973 16.6036 8.68973C15.9461 8.68973 15.3458 8.8279 14.8026 9.10423C14.269 9.38056 13.8069 9.76171 13.4162 10.2477C13.0351 10.7336 12.7349 11.2911 12.5157 11.92C12.3061 12.5393 12.2013 13.1968 12.2013 13.8924ZM43.2172 0.256841H45.8757V19.2094L45.647 22.2109H43.2172V0.256841ZM56.3239 14.3498V14.6499C56.3239 15.7743 56.1905 16.8177 55.9237 17.7801C55.6569 18.733 55.2662 19.562 54.7517 20.2671C54.2371 20.9722 53.6082 21.5201 52.865 21.9108C52.1217 22.3015 51.2689 22.4968 50.3065 22.4968C49.3251 22.4968 48.4627 22.33 47.7195 21.9965C46.9858 21.6535 46.3664 21.1628 45.8614 20.5244C45.3564 19.8859 44.9514 19.1141 44.6465 18.2089C44.3511 17.3037 44.1462 16.2841 44.0319 15.1502V13.8352C44.1462 12.6918 44.3511 11.6674 44.6465 10.7622C44.9514 9.85699 45.3564 9.08517 45.8614 8.44675C46.3664 7.7988 46.9858 7.30807 47.7195 6.97457C48.4532 6.63153 49.306 6.46002 50.2779 6.46002C51.2499 6.46002 52.1122 6.65059 52.865 7.03174C53.6177 7.40336 54.2466 7.93696 54.7517 8.63256C55.2662 9.32815 55.6569 10.1619 55.9237 11.1338C56.1905 12.0962 56.3239 13.1682 56.3239 14.3498ZM53.6654 14.6499V14.3498C53.6654 13.5779 53.5939 12.8538 53.451 12.1772C53.3081 11.4912 53.0794 10.8909 52.7649 10.3763C52.4505 9.85223 52.036 9.4425 51.5214 9.14711C51.0069 8.84219 50.3732 8.68973 49.6205 8.68973C48.9535 8.68973 48.3722 8.80407 47.8767 9.03276C47.3907 9.26145 46.9762 9.57113 46.6332 9.96181C46.2902 10.343 46.0091 10.7813 45.7899 11.2768C45.5803 11.7627 45.4231 12.2678 45.3183 12.7918V16.2365C45.4707 16.9035 45.7185 17.5466 46.0615 18.166C46.4141 18.7758 46.881 19.2761 47.4622 19.6668C48.053 20.0575 48.7819 20.2528 49.649 20.2528C50.3637 20.2528 50.9735 20.1099 51.4786 19.824C51.9931 19.5286 52.4076 19.1236 52.722 18.6091C53.046 18.0945 53.2842 17.499 53.4367 16.8225C53.5892 16.1459 53.6654 15.4217 53.6654 14.6499ZM68.7874 19.5667V11.6055C68.7874 10.9957 68.6635 10.4668 68.4158 10.019C68.1776 9.5616 67.8155 9.20904 67.3295 8.9613C66.8436 8.71355 66.2433 8.58968 65.5286 8.58968C64.8616 8.58968 64.2756 8.70402 63.7706 8.93271C63.2751 9.1614 62.8844 9.46155 62.5985 9.83317C62.3222 10.2048 62.184 10.605 62.184 11.0338H59.5398C59.5398 10.4811 59.6828 9.93322 59.9686 9.39009C60.2545 8.84695 60.6642 8.35623 61.1978 7.91791C61.7409 7.47006 62.3889 7.1175 63.1417 6.86022C63.904 6.59342 64.752 6.46002 65.6858 6.46002C66.8102 6.46002 67.8012 6.65059 68.6588 7.03174C69.5259 7.41289 70.2024 7.98937 70.6884 8.76119C71.1839 9.52349 71.4316 10.4811 71.4316 11.6341V18.8378C71.4316 19.3523 71.4745 19.9002 71.5603 20.4815C71.6555 21.0627 71.7937 21.563 71.9748 21.9822V22.2109H69.2162C69.0828 21.906 68.978 21.5011 68.9018 20.996C68.8255 20.4815 68.7874 20.005 68.7874 19.5667ZM69.2448 12.8347L69.2734 14.6928H66.6006C65.8478 14.6928 65.176 14.7547 64.5853 14.8786C63.9945 14.993 63.499 15.1692 63.0988 15.4075C62.6986 15.6457 62.3937 15.9458 62.184 16.3079C61.9744 16.6605 61.8696 17.075 61.8696 17.5514C61.8696 18.0374 61.9792 18.4805 62.1983 18.8807C62.4175 19.2809 62.7462 19.6001 63.1845 19.8383C63.6324 20.067 64.1803 20.1813 64.8282 20.1813C65.6382 20.1813 66.3528 20.0098 66.9722 19.6668C67.5916 19.3237 68.0823 18.9045 68.4444 18.409C68.816 17.9135 69.0161 17.4323 69.0447 16.9654L70.1738 18.2375C70.1071 18.6377 69.9261 19.0808 69.6307 19.5667C69.3353 20.0527 68.9399 20.5196 68.4444 20.9674C67.9584 21.4058 67.3772 21.7726 66.7006 22.068C66.0336 22.3539 65.2809 22.4968 64.4423 22.4968C63.3942 22.4968 62.4747 22.2919 61.6838 21.8822C60.9024 21.4725 60.2926 20.9246 59.8543 20.2385C59.4255 19.5429 59.2111 18.7663 59.2111 17.9087C59.2111 17.0797 59.3731 16.3508 59.697 15.7219C60.021 15.0835 60.4879 14.5546 61.0978 14.1354C61.7076 13.7066 62.4413 13.3826 63.2989 13.1634C64.1565 12.9443 65.1141 12.8347 66.1718 12.8347H69.2448ZM82.0656 6.74588V8.77549H73.7042V6.74588H82.0656ZM76.5342 2.98681H79.1784V18.3804C79.1784 18.9045 79.2594 19.2999 79.4214 19.5667C79.5834 19.8335 79.793 20.0098 80.0503 20.0956C80.3076 20.1813 80.5839 20.2242 80.8793 20.2242C81.0985 20.2242 81.3272 20.2051 81.5654 20.167C81.8131 20.1194 81.9989 20.0813 82.1228 20.0527L82.1371 22.2109C81.9275 22.2776 81.6511 22.3396 81.3081 22.3967C80.9746 22.4634 80.5696 22.4968 80.0932 22.4968C79.4452 22.4968 78.8497 22.3682 78.3066 22.1109C77.7634 21.8536 77.3299 21.4248 77.0059 20.8245C76.6915 20.2147 76.5342 19.3952 76.5342 18.3661V2.98681ZM84.181 14.6499V14.3212C84.181 13.2063 84.343 12.1725 84.667 11.2196C84.9909 10.2572 85.4579 9.42344 86.0677 8.71832C86.6775 8.00366 87.416 7.451 88.2831 7.06032C89.1502 6.66012 90.1221 6.46002 91.1989 6.46002C92.2852 6.46002 93.2618 6.66012 94.129 7.06032C95.0056 7.451 95.7488 8.00366 96.3587 8.71832C96.978 9.42344 97.4497 10.2572 97.7737 11.2196C98.0977 12.1725 98.2596 13.2063 98.2596 14.3212V14.6499C98.2596 15.7648 98.0977 16.7986 97.7737 17.7515C97.4497 18.7044 96.978 19.5381 96.3587 20.2528C95.7488 20.9579 95.0104 21.5106 94.1433 21.9108C93.2857 22.3015 92.3137 22.4968 91.2275 22.4968C90.1412 22.4968 89.1645 22.3015 88.2974 21.9108C87.4303 21.5106 86.6871 20.9579 86.0677 20.2528C85.4579 19.5381 84.9909 18.7044 84.667 17.7515C84.343 16.7986 84.181 15.7648 84.181 14.6499ZM86.8252 14.3212V14.6499C86.8252 15.4217 86.9157 16.1507 87.0968 16.8368C87.2778 17.5133 87.5494 18.1136 87.9115 18.6377C88.2831 19.1618 88.7453 19.5763 89.2979 19.8812C89.8506 20.1766 90.4938 20.3243 91.2275 20.3243C91.9517 20.3243 92.5853 20.1766 93.1284 19.8812C93.6811 19.5763 94.1385 19.1618 94.5006 18.6377C94.8627 18.1136 95.1342 17.5133 95.3153 16.8368C95.5059 16.1507 95.6011 15.4217 95.6011 14.6499V14.3212C95.6011 13.5589 95.5059 12.8395 95.3153 12.1629C95.1342 11.4769 94.8579 10.8718 94.4863 10.3477C94.1242 9.81411 93.6668 9.39485 93.1142 9.08993C92.571 8.78502 91.9326 8.63256 91.1989 8.63256C90.4747 8.63256 89.8363 8.78502 89.2836 9.08993C88.7405 9.39485 88.2831 9.81411 87.9115 10.3477C87.5494 10.8718 87.2778 11.4769 87.0968 12.1629C86.9157 12.8395 86.8252 13.5589 86.8252 14.3212ZM104.22 9.17569V22.2109H101.576V6.74588H104.148L104.22 9.17569ZM109.051 6.66012L109.037 9.11852C108.817 9.07088 108.608 9.04229 108.408 9.03276C108.217 9.0137 107.998 9.00418 107.75 9.00418C107.14 9.00418 106.602 9.09946 106.135 9.29004C105.668 9.48061 105.273 9.74741 104.949 10.0904C104.625 10.4335 104.368 10.8432 104.177 11.3196C103.996 11.7866 103.877 12.3011 103.82 12.8633L103.076 13.2921C103.076 12.3583 103.167 11.4816 103.348 10.6622C103.539 9.8427 103.829 9.11852 104.22 8.48963C104.611 7.8512 105.106 7.35571 105.706 7.00315C106.316 6.64106 107.04 6.46002 107.879 6.46002C108.069 6.46002 108.289 6.48384 108.536 6.53148C108.784 6.5696 108.956 6.61248 109.051 6.66012Z" fill="white"/>
<path d="M32.7807 2.68643C34.9664 2.68643 36.5764 3.23284 37.6107 4.32567C38.6449 5.41849 39.1621 6.96992 39.1621 8.97993V16.2687C39.1621 18.7666 38.2351 20.5132 36.3812 21.5084L39.7475 22.3866L39.8061 24.6991H39.2499L33.5126 22.5329C33.3759 22.5524 33.1418 22.5622 32.81 22.5622C28.5363 22.5622 26.3994 20.4644 26.3994 16.2687V8.97993C26.3994 6.96992 26.9166 5.41849 27.9508 4.32567C28.9851 3.23284 30.5951 2.68643 32.7807 2.68643ZM32.7807 4.88184C31.4928 4.88184 30.517 5.20383 29.8535 5.84782C29.2095 6.4918 28.8876 7.43827 28.8876 8.68721V16.5321C28.8876 17.7811 29.2193 18.7373 29.8828 19.4008C30.5463 20.0448 31.522 20.3668 32.81 20.3668C35.386 20.3668 36.6739 19.0691 36.6739 16.4736V8.71649C36.6739 7.46754 36.3422 6.52108 35.6787 5.87709C35.0347 5.21359 34.0687 4.88184 32.7807 4.88184Z" fill="url(#paint0_linear_1_15)"/>
</g>
<defs>
<filter id="filter0_d_1_15" x="0.590786" y="0.256836" width="110.951" height="29.4247" filterUnits="userSpaceOnUse" color-interpolation-filters="sRGB">
<feFlood flood-opacity="0" result="BackgroundImageFix"/>
<feColorMatrix in="SourceAlpha" type="matrix" values="0 0 0 0 0 0 0 0 0 0 0 0 0 0 0 0 0 0 127 0" result="hardAlpha"/>
<feOffset dy="2.49125"/>
<feGaussianBlur stdDeviation="1.24562"/>
<feComposite in2="hardAlpha" operator="out"/>
<feColorMatrix type="matrix" values="0 0 0 0 0 0 0 0 0 0 0 0 0 0 0 0 0 0 0.25 0"/>
<feBlend mode="normal" in2="BackgroundImageFix" result="effect1_dropShadow_1_15"/>
<feBlend mode="normal" in="SourceGraphic" in2="effect1_dropShadow_1_15" result="shape"/>
</filter>
<linearGradient id="paint0_linear_1_15" x1="59.597" y1="-4.78906" x2="59.597" y2="29.4656" gradientUnits="userSpaceOnUse">
<stop stop-color="#6F58DB"/>
<stop offset="1" stop-color="#E56E84"/>
</linearGradient>
</defs>
</svg>
