<svg width="20" height="20" viewBox="0 0 20 20" fill="none" xmlns="http://www.w3.org/2000/svg">
<g id="streamline:mail-chat-bubble-typing-oval-messages-message-bubble-typing-chat" clip-path="url(#clip0_2_1858)">
<g id="Group">
<path id="Vector" d="M5.0014 10.7142C5.39588 10.7142 5.71568 10.3944 5.71568 9.99993C5.71568 9.60544 5.39588 9.28564 5.0014 9.28564C4.60691 9.28564 4.28711 9.60544 4.28711 9.99993C4.28711 10.3944 4.60691 10.7142 5.0014 10.7142Z" stroke="white" stroke-width="1.5" stroke-linecap="round" stroke-linejoin="round"/>
<path id="Vector_2" d="M9.64397 10.7142C10.0385 10.7142 10.3583 10.3944 10.3583 9.99993C10.3583 9.60544 10.0385 9.28564 9.64397 9.28564C9.24948 9.28564 8.92969 9.60544 8.92969 9.99993C8.92969 10.3944 9.24948 10.7142 9.64397 10.7142Z" stroke="white" stroke-width="1.5" stroke-linecap="round" stroke-linejoin="round"/>
<path id="Vector_3" d="M14.2866 10.7142C14.681 10.7142 15.0008 10.3944 15.0008 9.99993C15.0008 9.60544 14.681 9.28564 14.2866 9.28564C13.8921 9.28564 13.5723 9.60544 13.5723 9.99993C13.5723 10.3944 13.8921 10.7142 14.2866 10.7142Z" stroke="white" stroke-width="1.5" stroke-linecap="round" stroke-linejoin="round"/>
<path id="Vector_4" d="M10.0006 0.714235C8.3209 0.714758 6.67284 1.17086 5.2319 2.03397C3.79097 2.89707 2.61113 4.13486 1.81804 5.61549C1.02495 7.09611 0.648317 8.76413 0.728257 10.4419C0.808197 12.1196 1.34172 13.7443 2.27199 15.1428L0.714844 19.2857L5.92913 18.3428C7.18471 18.9564 8.56259 19.2786 9.96005 19.2855C11.3575 19.2925 12.7385 18.9839 14.0001 18.3828C15.2617 17.7817 16.3714 16.9036 17.2464 15.8139C18.1213 14.7243 18.7391 13.4512 19.0536 12.0895C19.3681 10.7279 19.3712 9.31284 19.0626 7.94985C18.7541 6.58685 18.1419 5.31107 17.2717 4.21761C16.4014 3.12415 15.2956 2.24122 14.0366 1.63462C12.7777 1.02802 11.398 0.71341 10.0006 0.714235Z" stroke="white" stroke-width="1.5" stroke-linecap="round" stroke-linejoin="round"/>
</g>
</g>
<defs>
<clipPath id="clip0_2_1858">
<rect width="20" height="20" fill="white"/>
</clipPath>
</defs>
</svg>
