<svg width="24" height="24" viewBox="0 0 24 24" fill="none" xmlns="http://www.w3.org/2000/svg">
<g id="octicon:goal-24">
<path id="Vector" d="M20.1725 6.75003H18.3115L13.7455 11.314C13.9027 11.7148 13.9172 12.1575 13.7864 12.5677C13.6557 12.9779 13.3876 13.3306 13.0274 13.5664C12.6672 13.8022 12.2368 13.9068 11.8085 13.8626C11.3803 13.8184 10.9803 13.6281 10.6758 13.3237C10.3714 13.0192 10.1811 12.6192 10.1369 12.191C10.0927 11.7627 10.1973 11.3323 10.4331 10.9721C10.6689 10.6119 11.0216 10.3438 11.4318 10.2131C11.842 10.0823 12.2847 10.0968 12.6855 10.254L17.2505 5.68903V3.82803C17.2506 3.57901 17.3495 3.3402 17.5255 3.16403L19.2555 1.43403C19.2874 1.40172 19.3276 1.37876 19.3717 1.36766C19.4157 1.35655 19.462 1.35772 19.5055 1.37103C19.5945 1.39703 19.6605 1.47103 19.6785 1.56203L20.1385 3.86303L22.4385 4.32303C22.5285 4.34103 22.6025 4.40703 22.6285 4.49603C22.6416 4.53926 22.6428 4.58525 22.6319 4.62909C22.6209 4.67294 22.5983 4.713 22.5665 4.74503L20.8355 6.47503C20.7485 6.56219 20.6451 6.63134 20.5313 6.67853C20.4176 6.72572 20.2956 6.75002 20.1725 6.75003Z" fill="white"/>
<path id="Vector_2" d="M2.625 12C2.625 14.4864 3.61272 16.871 5.37087 18.6291C7.12903 20.3873 9.5136 21.375 12 21.375C13.2311 21.375 14.4502 21.1325 15.5877 20.6614C16.7251 20.1902 17.7586 19.4997 18.6291 18.6291C19.4997 17.7586 20.1902 16.7251 20.6614 15.5877C21.1325 14.4502 21.375 13.2311 21.375 12C21.375 11.102 21.249 10.234 21.014 9.41301C20.9673 9.2245 20.9955 9.02522 21.0928 8.8571C21.19 8.68899 21.3487 8.56515 21.5353 8.51164C21.722 8.45813 21.9222 8.47913 22.0937 8.57021C22.2653 8.6613 22.3948 8.81537 22.455 9.00001C22.729 9.95401 22.875 10.96 22.875 12C22.875 18.006 18.006 22.875 12 22.875C5.994 22.875 1.125 18.006 1.125 12C1.125 5.99401 5.994 1.12501 12 1.12501C13.015 1.12401 14.024 1.26501 15 1.54401C15.0952 1.5707 15.1841 1.61594 15.2617 1.67713C15.3393 1.73831 15.4041 1.81423 15.4523 1.90053C15.5005 1.98683 15.5311 2.0818 15.5425 2.17998C15.5538 2.27816 15.5457 2.37762 15.5184 2.47264C15.4912 2.56765 15.4455 2.65635 15.3839 2.73364C15.3223 2.81092 15.246 2.87527 15.1595 2.92297C15.0729 2.97068 14.9778 3.00081 14.8795 3.01163C14.7813 3.02244 14.6819 3.01374 14.587 2.98601C13.7457 2.74573 12.8749 2.62423 12 2.62501C9.5136 2.62501 7.12903 3.61273 5.37087 5.37088C3.61272 7.12903 2.625 9.5136 2.625 12Z" fill="white"/>
<path id="Vector_3" d="M7.12572 12C7.12851 12.6624 7.26626 13.3172 7.53057 13.9245C7.79487 14.5318 8.18018 15.0788 8.66297 15.5323C9.14576 15.9857 9.71589 16.336 10.3386 16.5617C10.9612 16.7874 11.6234 16.8839 12.2846 16.8452C12.9458 16.8064 13.5922 16.6334 14.1842 16.3365C14.7763 16.0396 15.3017 15.6252 15.7282 15.1186C16.1548 14.6119 16.4736 14.0236 16.6652 13.3896C16.8569 12.7556 16.9172 12.0892 16.8427 11.431C16.8217 11.2977 16.8372 11.1613 16.8874 11.036C16.9377 10.9108 17.0209 10.8015 17.1282 10.7197C17.2355 10.6379 17.3629 10.5867 17.497 10.5714C17.6311 10.5562 17.7668 10.5775 17.8897 10.633C18.1407 10.745 18.3097 10.984 18.3317 11.258C18.487 12.5733 18.2286 13.9042 17.5926 15.0659C16.9566 16.2275 15.9744 17.1622 14.7827 17.7399C13.591 18.3176 12.2488 18.5097 10.9429 18.2895C9.63697 18.0692 8.43208 17.4476 7.49572 16.511C6.55961 15.5755 5.93785 14.3718 5.71664 13.0669C5.49544 11.7621 5.68578 10.4207 6.26124 9.22888C6.83671 8.03706 7.76879 7.05385 8.9282 6.41562C10.0876 5.77739 11.4169 5.51577 12.7317 5.66703C12.8311 5.67626 12.9277 5.70523 13.0157 5.75225C13.1038 5.79927 13.1816 5.8634 13.2445 5.94087C13.3075 6.01834 13.3543 6.1076 13.3823 6.20341C13.4103 6.29923 13.4189 6.39967 13.4076 6.49885C13.3963 6.59802 13.3653 6.69395 13.3164 6.78099C13.2675 6.86803 13.2018 6.94444 13.123 7.00574C13.0442 7.06705 12.954 7.112 12.8576 7.13798C12.7612 7.16396 12.6606 7.17044 12.5617 7.15704C11.8787 7.07807 11.1868 7.14444 10.5313 7.35177C9.87577 7.5591 9.27151 7.90272 8.75817 8.36006C8.24482 8.81741 7.834 9.37814 7.55266 10.0055C7.27132 10.6328 7.12582 11.3125 7.12572 12Z" fill="white"/>
</g>
</svg>
