<svg width="40" height="40" viewBox="0 0 40 40" fill="none" xmlns="http://www.w3.org/2000/svg">
<g id="fluent:previous-20-filled">
<path id="Vector" d="M34 8.50401C34 6.50401 31.768 5.31401 30.106 6.42801L13.108 17.842C12.7686 18.0698 12.4902 18.3774 12.2973 18.7379C12.1043 19.0983 12.0027 19.5005 12.0013 19.9093C12 20.3181 12.0988 20.721 12.2893 21.0827C12.4798 21.4444 12.7561 21.7539 13.094 21.984L30.094 33.57C30.4697 33.8255 30.908 33.9739 31.3616 33.999C31.8153 34.0242 32.2672 33.9252 32.6689 33.7127C33.0705 33.5003 33.4067 33.1824 33.6412 32.7933C33.8758 32.4041 33.9998 31.9584 34 31.504V8.50401ZM6 7.00001C6 6.73479 6.10536 6.48044 6.29289 6.2929C6.48043 6.10537 6.73478 6.00001 7 6.00001C7.26522 6.00001 7.51957 6.10537 7.70711 6.2929C7.89464 6.48044 8 6.73479 8 7.00001V33C8 33.2652 7.89464 33.5196 7.70711 33.7071C7.51957 33.8946 7.26522 34 7 34C6.73478 34 6.48043 33.8946 6.29289 33.7071C6.10536 33.5196 6 33.2652 6 33V7.00001Z" fill="white"/>
</g>
</svg>
