<svg width="18" height="18" viewBox="0 0 18 18" fill="none" xmlns="http://www.w3.org/2000/svg">
<g id="bi:graph-up-arrow" clip-path="url(#clip0_2_1867)">
<path id="Vector" fill-rule="evenodd" clip-rule="evenodd" d="M0 0H1.125V16.875H18V18H0V0ZM11.25 3.9375C11.25 3.78832 11.3093 3.64524 11.4148 3.53975C11.5202 3.43426 11.6633 3.375 11.8125 3.375H16.3125C16.4617 3.375 16.6048 3.43426 16.7102 3.53975C16.8157 3.64524 16.875 3.78832 16.875 3.9375V8.4375C16.875 8.58668 16.8157 8.72976 16.7102 8.83525C16.6048 8.94074 16.4617 9 16.3125 9C16.1633 9 16.0202 8.94074 15.9148 8.83525C15.8093 8.72976 15.75 8.58668 15.75 8.4375V5.5125L11.6854 10.4816C11.6356 10.5424 11.5737 10.592 11.5036 10.6274C11.4335 10.6627 11.3568 10.683 11.2783 10.6869C11.1999 10.6909 11.1216 10.6783 11.0483 10.6501C10.975 10.6219 10.9084 10.5787 10.8529 10.5233L7.9425 7.61287L3.8295 13.2682C3.73953 13.3827 3.60871 13.4577 3.46453 13.4777C3.32036 13.4977 3.17406 13.461 3.05637 13.3753C2.93868 13.2897 2.85877 13.1618 2.83344 13.0184C2.8081 12.8751 2.83931 12.7276 2.9205 12.6068L7.4205 6.41925C7.46826 6.35345 7.52972 6.29879 7.60065 6.25904C7.67157 6.21928 7.75027 6.19537 7.83132 6.18895C7.91237 6.18254 7.99385 6.19377 8.07014 6.22187C8.14644 6.24998 8.21573 6.29429 8.27325 6.35175L11.2084 9.288L15.1256 4.5H11.8125C11.6633 4.5 11.5202 4.44074 11.4148 4.33525C11.3093 4.22976 11.25 4.08668 11.25 3.9375Z" fill="white"/>
</g>
<defs>
<clipPath id="clip0_2_1867">
<rect width="18" height="18" fill="white"/>
</clipPath>
</defs>
</svg>
