<svg width="67" height="76" viewBox="0 0 67 76" fill="none" xmlns="http://www.w3.org/2000/svg">
<path d="M26.2096 32.6017L21.6504 32.7381C21.0063 32.7722 20.4729 32.5551 20.0504 32.0867C19.6268 31.6188 19.4903 31.1181 19.6409 30.5845L21.5383 23.8617C21.6789 23.3638 21.9474 22.9341 22.344 22.5727C22.7406 22.2113 23.2293 21.9652 23.8101 21.8343L26.0894 21.3457C25.7156 23.4728 25.5294 25.3386 25.5307 26.9431C25.5303 28.5471 25.7566 30.4333 26.2096 32.6017ZM39.7668 8.41274C39.9737 8.32169 40.3654 8.17048 40.3654 8.17048C40.3654 8.17048 40.9084 8.0393 41.2667 8.05218C41.7473 8.06946 42.0196 8.17604 42.4508 8.36582C43.2889 8.73476 43.9621 9.67785 44.0888 9.87136C45.8977 12.1365 46.2941 13.0207 46.7525 15.9344C47.2099 18.8486 46.7123 22.3524 45.5934 25.6273C44.8816 27.7107 43.8645 29.0796 43.0852 30.4343C42.3065 31.79 41.267 33.2056 39.9668 34.681C39.7097 34.9499 39.4067 35.1611 39.0579 35.3145C38.7081 35.4684 38.3247 35.4813 37.9076 35.3532L29.9191 33.236C29.502 33.1079 29.334 32.9042 29.1199 32.5772C28.9065 32.2511 28.7826 31.5944 28.7062 31.223C28.3956 29.2723 28.2611 27.5009 28.3026 25.9088C28.3436 24.3181 28.6352 22.5623 29.1773 20.6415C29.9704 17.8314 31.3161 15.331 33.2143 13.1402C35.1131 10.9503 37.2973 9.37447 39.7668 8.41274ZM41.349 37.2507C42.8562 35.6842 44.0332 34.2243 44.8801 32.871C45.7265 31.5168 46.545 29.8401 47.3358 27.8411L48.9589 29.5571C49.3791 29.9953 49.6661 30.4847 49.8199 31.0251C49.9731 31.5646 49.9794 32.0833 49.8389 32.5813L47.9415 39.3041C47.7909 39.8377 47.4123 40.1756 46.8056 40.3178C46.1989 40.4601 45.6338 40.3348 45.1101 39.9421L41.349 37.2507Z" fill="url(#paint0_linear_1_17)"/>
<path d="M25.7334 40.9155C25.9637 39.3531 26.7783 38.3353 27.9035 37.5621C29.312 36.5941 31.74 36.7318 33.1997 37.1801C34.6595 37.6283 35.9075 38.3905 36.6992 39.5999C37.4908 40.8093 37.6852 41.691 37.1962 43.1222C36.9452 44.0115 35.9249 45.4043 34.6969 46.5053C33.4678 47.6067 31.3215 48.7758 28.8783 50.2868C27.6096 47.636 26.684 46.5838 26.2314 44.9759C25.7787 43.3681 25.6096 41.7561 25.7334 40.9155Z" fill="url(#paint1_linear_1_17)"/>
<defs>
<linearGradient id="paint0_linear_1_17" x1="29.4504" y1="13.0901" x2="43.0633" y2="44.035" gradientUnits="userSpaceOnUse">
<stop stop-color="#6956DE"/>
<stop offset="1" stop-color="#ED6F7E"/>
</linearGradient>
<linearGradient id="paint1_linear_1_17" x1="28.751" y1="13.5649" x2="42.3638" y2="44.5098" gradientUnits="userSpaceOnUse">
<stop stop-color="#6956DE"/>
<stop offset="1" stop-color="#ED6F7E"/>
</linearGradient>
</defs>
</svg>
