<svg width="24" height="24" viewBox="0 0 24 24" fill="none" xmlns="http://www.w3.org/2000/svg">
<g id="material-symbols:subscriptions-outline-rounded">
<path id="Vector" d="M4 22C3.45 22 2.979 21.804 2.587 21.412C2.195 21.02 1.99934 20.5493 2 20V10C2 9.45 2.196 8.979 2.588 8.587C2.98 8.195 3.45067 7.99934 4 8H20C20.55 8 21.021 8.196 21.413 8.588C21.805 8.98 22.0007 9.45067 22 10V20C22 20.55 21.804 21.021 21.412 21.413C21.02 21.805 20.5493 22.0007 20 22H4ZM4 20H20V10H4V20ZM10.775 18.475L15.375 15.425C15.525 15.325 15.6 15.1833 15.6 15C15.6 14.8167 15.525 14.675 15.375 14.575L10.775 11.525C10.6083 11.4083 10.4373 11.3957 10.262 11.487C10.0867 11.5783 9.99934 11.7243 10 11.925V18.075C10 18.275 10.0877 18.421 10.263 18.513C10.4383 18.605 10.609 18.5923 10.775 18.475ZM5 7C4.71667 7 4.479 6.904 4.287 6.712C4.095 6.52 3.99934 6.28267 4 6C4 5.71667 4.096 5.479 4.288 5.287C4.48 5.095 4.71733 4.99934 5 5H19C19.2833 5 19.521 5.096 19.713 5.288C19.905 5.48 20.0007 5.71734 20 6C20 6.28334 19.904 6.521 19.712 6.713C19.52 6.905 19.2827 7.00067 19 7H5ZM8 4C7.71667 4 7.479 3.904 7.287 3.712C7.095 3.52 6.99934 3.28267 7 3C7 2.71667 7.096 2.479 7.288 2.287C7.48 2.095 7.71734 1.99934 8 2H16C16.2833 2 16.521 2.096 16.713 2.288C16.905 2.48 17.0007 2.71734 17 3C17 3.28334 16.904 3.521 16.712 3.713C16.52 3.905 16.2827 4.00067 16 4H8Z" fill="white"/>
</g>
</svg>
