<svg width="15" height="21" viewBox="0 0 15 21" fill="none" xmlns="http://www.w3.org/2000/svg">
<path d="M6.75 19.5003H1.5V1.50026H7.5V6.00026C7.50119 6.39772 7.6596 6.77856 7.94065 7.0596C8.2217 7.34065 8.60254 7.49907 9 7.50026H13.5V12.0003H15V6.00026C15.0026 5.90169 14.9839 5.80372 14.9451 5.71309C14.9062 5.62246 14.8482 5.54132 14.775 5.47526L9.525 0.225255C9.45897 0.152013 9.37784 0.0939678 9.2872 0.0551228C9.19656 0.0162778 9.09857 -0.00244187 9 0.00025503H1.5C1.10254 0.00144208 0.721699 0.159859 0.440651 0.440906C0.159604 0.721954 0.00118705 1.1028 0 1.50026V19.5003C0.00118705 19.8977 0.159604 20.2786 0.440651 20.5596C0.721699 20.8407 1.10254 20.9991 1.5 21.0003H6.75V19.5003ZM9 1.80026L13.2 6.00026H9V1.80026Z" fill="white"/>
</svg>
